# xmcd
#
# Track frame offsets: 
#        150
#        20473
#        40660
#        59556
#        86580
#        100592
#        134068
#        159029
#        186213
#
# Disc length: 2766 seconds
#
# Revision: 0
# Processed by: cddbd v1.5.1PL0 Copyright (c) Steve Scherf et al.
# Submitted via: ExactAudioCopy v0.95a5
#
DISCID=6c0acc09
DTITLE=GK Brothers Blues Band - Together
DYEAR=2003
DGENRE=Blues
TTITLE0=Let's Work Together
TTITLE1=Ramblin'
TTITLE2=Along For The Ride
TTITLE3=Spoonful
TTITLE4=G. K. Brothers
TTITLE5=Leaving Blues
TTITLE6=Last Two Dollars
TTITLE7=Roadhouse Blues
TTITLE8=Cold Sweat
EXTD=
EXTT0=
EXTT1=
EXTT2=
EXTT3=
EXTT4=
EXTT5=
EXTT6=
EXTT7=
EXTT8=
PLAYORDER=
